<svg width="128" height="64" viewBox="0 0 400 200" xmlns="http://www.w3.org/2000/svg">
  <defs>
    <linearGradient gradientUnits="userSpaceOnUse" x1="124.549" y1="54.803" x2="124.549" y2="128.944" id="gradient-0">
      <stop offset="0" style="stop-color: rgba(216, 216, 216, 1)"/>
      <stop offset="1" style="stop-color: rgba(165, 165, 165, 1)"/>
    </linearGradient>
  </defs>
  <path d="M 124.548 54.803 L 167.354 128.944 L 81.743 128.944 L 124.548 54.803 Z" style="stroke-width: 3px; fill: url(#gradient-0);"/>
  <path d="M 314.181 111.311 L 349.92 173.192 L 278.442 173.192 L 314.181 111.311 Z" style="fill: rgb(206, 206, 206);" transform="matrix(-0.513406, 0.858146, -0.858146, -0.513406, 450.870575, -82.939323)"/>
  <polygon style="fill: rgb(255, 255, 255); stroke: rgba(0, 0, 0, 0);" points="132.507 69.605 124.731 81.787 120.741 71.563 110.268 81.537 124.454 55.851 132.77 69.373"/>
  <text style="white-space: pre; fill: rgb(51, 51, 51); font-family: Veneer; font-size: 17.2px;" x="203.655" y="95.384" transform="matrix(2.157758, 0, 0, 2.314551, -297.54538, -95.755966)">Otherwise</text>
  <polygon style="fill: rgb(255, 255, 255); stroke: rgba(0, 0, 0, 0.11);" points="164.405 76.223 158.956 84.892 156.159 77.617 148.82 84.713 158.762 66.436 164.59 76.058"/>
</svg>